# xmcd CD database file
# Copyright (C) 1993-1998 Ti Kan
#
# Track frame offsets:
# 183
# 14318
# 26958
# 39573
# 52485
# 70933
# 80195
# 93293
# 104733
# 115893
# 121458
# 138263
#
# Disc length: 1962 seconds
# Revision: 0
# Processed by: cddbd v1.4b41PL1 Copyright (c) Steve Scherf et al.
# Submitted via: CDSpectrumPro v3.3.333
#
DISCID=b207a80c
DTITLE=Various Artist - Country Outlaws (1)
DYEAR=1900
DGENRE=
TTITLE0=Georgie Jones - I always get lucky with you
TTITLE1=Mickey Gilley - Don't all the girls all get prettier at closing time
TTITLE2=Ronnie McDowell - Older women make good lovers
TTITLE3=Charlie Rich - Behind closed doors
TTITLE4=Ed Bruce - Mammas don't let your babies grow up to be cowboys
TTITLE5=Porter Wagoner - Louisiana Saturday night
TTITLE6=Mel McDaniel - Baby's got her blue jeans on
TTITLE7=Gene Watson - You're out doin' (what I'm here doin' without)
TTITLE8=Bellamy Brothers - Let your love flow
TTITLE9=Bobby Dare - 500 miles away from home
TTITLE10=Nitty Gritty Dirt Band - Long hard road
TTITLE11=TG Sheppard - I'll be coming back for more
EXTD=
EXTT0=
EXTT1=
EXTT2=
EXTT3=
EXTT4=
EXTT5=
EXTT6=
EXTT7=
EXTT8=
EXTT9=
EXTT10=
EXTT11=
PLAYORDER=
